<svg width="26" height="26" viewBox="0 0 26 26" fill="none" xmlns="http://www.w3.org/2000/svg">
<path d="M19.0493 0.56848C18.984 0.509105 16.6281 0.591918 14.5781 2.39972C12.5281 4.20596 12.8435 6.27783 12.8896 6.33095C12.9358 6.38408 15.8128 6.46689 17.6493 4.36534C19.4859 2.26378 19.1147 0.629417 19.0493 0.56848ZM25.4225 18.9012C25.3302 18.7512 20.9513 16.9731 21.359 13.5544C21.7667 10.1356 24.5802 9.19656 24.6244 9.095C24.6686 8.99344 23.4763 7.86063 22.2128 7.2872C21.285 6.88329 20.2584 6.65169 19.207 6.60907C18.9993 6.60439 18.2782 6.46064 16.7955 6.79032C15.8185 7.00751 13.6166 7.71063 13.0108 7.73876C12.4031 7.76688 10.5954 6.92313 8.65112 6.6997C7.40687 6.50439 6.08762 6.90439 5.14338 7.2122C4.20106 7.51845 2.40872 8.39032 1.15486 10.7075C-0.0990034 13.0231 0.556775 16.6918 1.02601 17.8325C1.49525 18.9731 2.22795 20.8387 3.47412 22.2012C4.58183 23.7387 6.05108 24.8059 6.66455 25.1684C7.27802 25.5309 9.00881 25.7715 10.2088 25.273C11.1742 24.7918 12.9166 24.5152 13.605 24.5355C14.2916 24.5559 15.6454 24.7762 17.032 25.3777C18.1301 25.6855 19.1686 25.5574 20.209 25.2137C21.2494 24.8684 22.7552 23.559 24.5129 20.9043C25.1795 19.6699 25.4828 19.0022 25.4225 18.9012Z" fill="black"/>
<path d="M19.0493 0.56848C18.984 0.509105 16.6281 0.591918 14.5781 2.39972C12.5281 4.20596 12.8435 6.27783 12.8896 6.33095C12.9358 6.38408 15.8128 6.46689 17.6493 4.36534C19.4859 2.26378 19.1147 0.629417 19.0493 0.56848ZM25.4225 18.9012C25.3302 18.7512 20.9513 16.9731 21.359 13.5544C21.7667 10.1356 24.5802 9.19656 24.6244 9.095C24.6686 8.99344 23.4763 7.86063 22.2128 7.2872C21.285 6.88329 20.2584 6.65169 19.207 6.60907C18.9993 6.60439 18.2782 6.46064 16.7955 6.79032C15.8185 7.00751 13.6166 7.71063 13.0108 7.73876C12.4031 7.76688 10.5954 6.92313 8.65112 6.6997C7.40687 6.50439 6.08762 6.90439 5.14338 7.2122C4.20106 7.51845 2.40872 8.39032 1.15486 10.7075C-0.0990034 13.0231 0.556775 16.6918 1.02601 17.8325C1.49525 18.9731 2.22795 20.8387 3.47412 22.2012C4.58183 23.7387 6.05108 24.8059 6.66455 25.1684C7.27802 25.5309 9.00881 25.7715 10.2088 25.273C11.1742 24.7918 12.9166 24.5152 13.605 24.5355C14.2916 24.5559 15.6454 24.7762 17.032 25.3777C18.1301 25.6855 19.1686 25.5574 20.209 25.2137C21.2494 24.8684 22.7552 23.559 24.5129 20.9043C25.1795 19.6699 25.4828 19.0022 25.4225 18.9012Z" fill="black"/>
</svg>
