<svg width="24" height="24" viewBox="0 0 24 24" fill="none" xmlns="http://www.w3.org/2000/svg">
<path fill-rule="evenodd" clip-rule="evenodd" d="M15.4183 5.64252C15.2804 5.42216 15.0772 5.25028 14.837 5.1508C14.5968 5.05133 14.3316 5.02921 14.0783 5.08752L12.2803 5.50052C12.096 5.54287 11.9046 5.54287 11.7203 5.50052L9.9223 5.08752C9.66896 5.02921 9.40375 5.05133 9.16357 5.1508C8.9234 5.25028 8.72021 5.42216 8.5823 5.64252L7.6023 7.20652C7.5023 7.36652 7.3673 7.50152 7.2073 7.60252L5.6433 8.58252C5.42332 8.72031 5.25169 8.92317 5.15223 9.16293C5.05278 9.4027 5.03043 9.66748 5.0883 9.92052L5.5013 11.7205C5.5435 11.9045 5.5435 12.0956 5.5013 12.2795L5.0883 14.0785C5.03021 14.3317 5.05244 14.5967 5.1519 14.8367C5.25137 15.0766 5.42312 15.2797 5.6433 15.4175L7.2073 16.3975C7.3673 16.4975 7.5023 16.6325 7.6033 16.7925L8.5833 18.3565C8.8653 18.8075 9.4033 19.0305 9.9223 18.9115L11.7203 18.4985C11.9046 18.4562 12.096 18.4562 12.2803 18.4985L14.0793 18.9115C14.3325 18.9696 14.5975 18.9474 14.8375 18.8479C15.0774 18.7484 15.2804 18.5767 15.4183 18.3565L16.3983 16.7925C16.4983 16.6325 16.6333 16.4975 16.7933 16.3975L18.3583 15.4175C18.5785 15.2795 18.7502 15.0762 18.8494 14.8361C18.9487 14.5959 18.9707 14.3308 18.9123 14.0775L18.5003 12.2795C18.4579 12.0953 18.4579 11.9038 18.5003 11.7195L18.9133 9.92052C18.9715 9.66744 18.9494 9.40251 18.8501 9.16255C18.7508 8.92259 18.5793 8.71951 18.3593 8.58152L16.7943 7.60152C16.6345 7.50134 16.4995 7.3663 16.3993 7.20652L15.4183 5.64252ZM14.9153 9.76952C14.9771 9.65579 14.9925 9.5225 14.958 9.39769C14.9236 9.27289 14.8421 9.16631 14.7307 9.10036C14.6193 9.03442 14.4867 9.01427 14.3607 9.04414C14.2347 9.07401 14.1252 9.15158 14.0553 9.26052L11.4403 13.6865L9.8613 12.1745C9.81445 12.1264 9.7584 12.0883 9.69649 12.0623C9.63457 12.0363 9.56806 12.0231 9.50092 12.0234C9.43378 12.0237 9.36739 12.0375 9.3057 12.064C9.24402 12.0905 9.1883 12.1292 9.14188 12.1777C9.09546 12.2262 9.05928 12.2835 9.0355 12.3463C9.01173 12.4091 9.00084 12.476 9.00349 12.5431C9.00614 12.6102 9.02228 12.6761 9.05094 12.7368C9.0796 12.7975 9.12019 12.8518 9.1703 12.8965L11.2043 14.8455C11.2587 14.8976 11.3242 14.9367 11.3959 14.9598C11.4676 14.983 11.5435 14.9897 11.6181 14.9795C11.6928 14.9692 11.7641 14.9422 11.8268 14.9004C11.8895 14.8587 11.942 14.8034 11.9803 14.7385L14.9153 9.76952Z" fill="black"/>
</svg>
