<svg width="24" height="26" viewBox="0 0 24 26" fill="none" xmlns="http://www.w3.org/2000/svg">
<path d="M16.6875 2.85034C14.8041 2.85034 13.1325 3.62476 12 4.95581C10.8675 3.62476 9.19594 2.85034 7.3125 2.85034C5.67208 2.85241 4.09942 3.53213 2.93947 4.74041C1.77952 5.9487 1.12698 7.58689 1.125 9.29565C1.125 16.3601 11.0447 22.0046 11.4666 22.2419C11.6305 22.3339 11.8138 22.3821 12 22.3821C12.1862 22.3821 12.3695 22.3339 12.5334 22.2419C12.9553 22.0046 22.875 16.3601 22.875 9.29565C22.873 7.58689 22.2205 5.9487 21.0605 4.74041C19.9006 3.53213 18.3279 2.85241 16.6875 2.85034ZM16.1728 16.7527C14.8671 17.9068 13.4714 18.9456 12 19.8582C10.5286 18.9456 9.13287 17.9068 7.82719 16.7527C5.79562 14.9373 3.375 12.1687 3.375 9.29565C3.375 8.20785 3.78984 7.1646 4.52827 6.39541C5.26669 5.62622 6.26821 5.19409 7.3125 5.19409C8.98125 5.19409 10.3781 6.11206 10.9584 7.59058C11.0429 7.80611 11.1871 7.99056 11.3726 8.12039C11.5581 8.25022 11.7765 8.31956 12 8.31956C12.2235 8.31956 12.4419 8.25022 12.6274 8.12039C12.8129 7.99056 12.9571 7.80611 13.0416 7.59058C13.6219 6.11206 15.0188 5.19409 16.6875 5.19409C17.7318 5.19409 18.7333 5.62622 19.4717 6.39541C20.2102 7.1646 20.625 8.20785 20.625 9.29565C20.625 12.1687 18.2044 14.9373 16.1728 16.7527Z" fill="#C4A484"/>
</svg>
