<svg width="88" height="86" viewBox="0 0 88 86" fill="none" xmlns="http://www.w3.org/2000/svg">
<g clip-path="url(#clip0_6_263)">
<path fill-rule="evenodd" clip-rule="evenodd" d="M0 43C0 31.5957 4.6357 20.6585 12.8873 12.5944C21.1389 4.53034 32.3305 0 44 0C55.6695 0 66.8611 4.53034 75.1127 12.5944C83.3643 20.6585 88 31.5957 88 43C88 54.4043 83.3643 65.3415 75.1127 73.4056C66.8611 81.4697 55.6695 86 44 86C32.3305 86 21.1389 81.4697 12.8873 73.4056C4.6357 65.3415 0 54.4043 0 43ZM41.4891 61.404L66.8213 30.4555L62.2453 26.8779L40.6443 53.2569L25.344 40.7984L21.5893 45.2016L41.4891 61.4097V61.404Z" fill="#4CAF50"/>
</g>
<defs>
<clipPath id="clip0_6_263">
<rect width="88" height="86" fill="white"/>
</clipPath>
</defs>
</svg>
