<!DOCTYPE svg PUBLIC "-//W3C//DTD SVG 1.1//EN" "http://www.w3.org/Graphics/SVG/1.1/DTD/svg11.dtd">
<!-- Uploaded to: SVG Repo, www.svgrepo.com, Transformed by: SVG Repo Mixer Tools -->
<svg fill="#000000" version="1.1" id="Capa_1" xmlns="http://www.w3.org/2000/svg" xmlns:xlink="http://www.w3.org/1999/xlink" viewBox="0 0 490 490" xml:space="preserve" width="800px" height="800px">
<g id="SVGRepo_bgCarrier" stroke-width="0"/>
<g id="SVGRepo_tracerCarrier" stroke-linecap="round" stroke-linejoin="round"/>
<g id="SVGRepo_iconCarrier"> <g> <g> <g> <rect x="9.7" y="4.7" width="480.3" height="94.1"/> <path d="M76.2,371.4h144.7c0-0.4,0.4-0.8,0.4-1.2c24.5-10.1,60.7-26.2,65.7-59.1c6-20.1-4.5-63.9-45.9-50.2c0-1.2,0-12.7,0-13.9 H54.4C56.4,290.2,64.2,339.9,76.2,371.4z M240.3,287.4c1.9-1.2,28.8-23.2,28.8,19.1c-3.9,20.8-24.1,32.3-39.3,38.9 C234.5,327.8,238,308.4,240.3,287.4z"/> <path d="M123.7,206.1h49.8v-34.6h-49.8v6.2H9.7c-5.4,0-9.7,4.3-9.7,9.7s4.3,9.7,9.7,9.7H124v8.9h-0.3V206.1z"/> <rect x="98" y="118.2" width="101.1" height="33.8"/> <polygon points="361.7,118.2 361.7,391.2 9.7,391.2 9.7,485.3 490,485.3 490,118.2 "/> </g> </g> </g> </g>
</svg>