<svg width="194" height="233" viewBox="0 0 194 233" fill="none" xmlns="http://www.w3.org/2000/svg">
<path d="M80.8334 183.808H113.167C114.239 183.808 115.267 183.296 116.025 182.386C116.783 181.476 117.208 180.241 117.208 178.954C117.208 177.666 116.783 176.432 116.025 175.521C115.267 174.611 114.239 174.1 113.167 174.1H80.8334C79.7615 174.1 78.7335 174.611 77.9755 175.521C77.2176 176.432 76.7917 177.666 76.7917 178.954C76.7917 180.241 77.2176 181.476 77.9755 182.386C78.7335 183.296 79.7615 183.808 80.8334 183.808Z" fill="#3B1C0A"/>
<path d="M135.21 212.972H58.7901C53.7187 212.608 48.972 209.854 45.5825 205.309C42.1931 200.764 40.4353 194.795 40.6915 188.701V44.2991C40.4353 38.2052 42.1931 32.2362 45.5825 27.6909C48.972 23.1456 53.7187 20.3916 58.7901 20.0283H135.21C140.281 20.3916 145.028 23.1456 148.418 27.6909C151.807 32.2362 153.565 38.2052 153.309 44.2991V188.701C153.565 194.795 151.807 200.764 148.418 205.309C145.028 209.854 140.281 212.608 135.21 212.972ZM58.7901 29.7366C55.8663 30.1075 53.18 31.8401 51.3076 34.5626C49.4352 37.2851 48.5259 40.7806 48.7749 44.2991V188.701C48.5259 192.219 49.4352 195.715 51.3076 198.437C53.18 201.16 55.8663 202.892 58.7901 203.263H135.21C138.134 202.892 140.82 201.16 142.692 198.437C144.565 195.715 145.474 192.219 145.225 188.701V44.2991C145.474 40.7806 144.565 37.2851 142.692 34.5626C140.82 31.8401 138.134 30.1075 135.21 29.7366H58.7901Z" fill="#3B1C0A"/>
<rect x="56" y="109" width="12" height="11" rx="2" fill="#D9D9D9"/>
<rect x="70" y="109" width="12" height="11" rx="2" fill="#D9D9D9"/>
<rect x="84" y="109" width="12" height="11" rx="2" fill="#D9D9D9"/>
<rect x="98" y="109" width="12" height="11" rx="2" fill="#D9D9D9"/>
<rect x="112" y="109" width="12" height="11" rx="2" fill="#D9D9D9"/>
<rect x="126" y="109" width="12" height="11" rx="2" fill="#D9D9D9"/>
<path d="M63.4005 113.21L63.8505 114.01L62.4805 114.52L63.8505 115.03L63.3905 115.85L62.2505 114.95L62.4605 116.4H61.5405L61.7305 114.95L60.5905 115.87L60.1105 115.02L61.4705 114.51L60.1105 114.02L60.5705 113.2L61.7405 114.1L61.5405 112.64H62.4705L62.2505 114.1L63.4005 113.21Z" fill="black"/>
<path d="M77.4005 113.21L77.8505 114.01L76.4805 114.52L77.8505 115.03L77.3905 115.85L76.2505 114.95L76.4605 116.4H75.5405L75.7305 114.95L74.5905 115.87L74.1105 115.02L75.4705 114.51L74.1105 114.02L74.5705 113.2L75.7405 114.1L75.5405 112.64H76.4705L76.2505 114.1L77.4005 113.21Z" fill="black"/>
<path d="M91.4005 113.21L91.8505 114.01L90.4805 114.52L91.8505 115.03L91.3905 115.85L90.2505 114.95L90.4605 116.4H89.5405L89.7305 114.95L88.5905 115.87L88.1105 115.02L89.4705 114.51L88.1105 114.02L88.5705 113.2L89.7405 114.1L89.5405 112.64H90.4705L90.2505 114.1L91.4005 113.21Z" fill="black"/>
<path d="M105.4 113.21L105.85 114.01L104.48 114.52L105.85 115.03L105.39 115.85L104.25 114.95L104.46 116.4H103.54L103.73 114.95L102.59 115.87L102.11 115.02L103.47 114.51L102.11 114.02L102.57 113.2L103.74 114.1L103.54 112.64H104.47L104.25 114.1L105.4 113.21Z" fill="black"/>
<path d="M119.4 113.21L119.85 114.01L118.48 114.52L119.85 115.03L119.39 115.85L118.25 114.95L118.46 116.4H117.54L117.73 114.95L116.59 115.87L116.11 115.02L117.47 114.51L116.11 114.02L116.57 113.2L117.74 114.1L117.54 112.64H118.47L118.25 114.1L119.4 113.21Z" fill="black"/>
<path d="M133.4 113.21L133.85 114.01L132.48 114.52L133.85 115.03L133.39 115.85L132.25 114.95L132.46 116.4H131.54L131.73 114.95L130.59 115.87L130.11 115.02L131.47 114.51L130.11 114.02L130.57 113.2L131.74 114.1L131.54 112.64H132.47L132.25 114.1L133.4 113.21Z" fill="black"/>
<path d="M90.6112 54.07C89.9645 54.07 89.3679 53.92 88.8212 53.62C88.2812 53.3133 87.8512 52.89 87.5312 52.35C87.2179 51.8033 87.0612 51.19 87.0612 50.51C87.0612 49.83 87.2179 49.22 87.5312 48.68C87.8512 48.14 88.2812 47.72 88.8212 47.42C89.3679 47.1133 89.9645 46.96 90.6112 46.96C91.2645 46.96 91.8612 47.1133 92.4012 47.42C92.9479 47.72 93.3779 48.14 93.6912 48.68C94.0045 49.22 94.1612 49.83 94.1612 50.51C94.1612 51.19 94.0045 51.8033 93.6912 52.35C93.3779 52.89 92.9479 53.3133 92.4012 53.62C91.8612 53.92 91.2645 54.07 90.6112 54.07ZM90.6112 53.08C91.0712 53.08 91.4812 52.9767 91.8412 52.77C92.2012 52.5567 92.4812 52.2567 92.6812 51.87C92.8879 51.4767 92.9912 51.0233 92.9912 50.51C92.9912 49.9967 92.8879 49.5467 92.6812 49.16C92.4812 48.7733 92.2012 48.4767 91.8412 48.27C91.4812 48.0633 91.0712 47.96 90.6112 47.96C90.1512 47.96 89.7412 48.0633 89.3812 48.27C89.0212 48.4767 88.7379 48.7733 88.5312 49.16C88.3312 49.5467 88.2312 49.9967 88.2312 50.51C88.2312 51.0233 88.3312 51.4767 88.5312 51.87C88.7379 52.2567 89.0212 52.5567 89.3812 52.77C89.7412 52.9767 90.1512 53.08 90.6112 53.08ZM99.365 47.05V47.98H97.515V54H96.375V47.98H94.515V47.05H99.365ZM104.972 49.12C104.972 49.4733 104.888 49.8067 104.722 50.12C104.555 50.4333 104.288 50.69 103.922 50.89C103.555 51.0833 103.085 51.18 102.512 51.18H101.252V54H100.112V47.05H102.512C103.045 47.05 103.495 47.1433 103.862 47.33C104.235 47.51 104.512 47.7567 104.692 48.07C104.878 48.3833 104.972 48.7333 104.972 49.12ZM102.512 50.25C102.945 50.25 103.268 50.1533 103.482 49.96C103.695 49.76 103.802 49.48 103.802 49.12C103.802 48.36 103.372 47.98 102.512 47.98H101.252V50.25H102.512Z" fill="black"/>
<path d="M86.3697 145.66L83.2377 154H81.6537L78.5097 145.66H79.9737L82.4457 152.596L84.9297 145.66H86.3697ZM93.1658 150.532C93.1658 150.78 93.1497 151.004 93.1177 151.204H88.0657C88.1057 151.732 88.3017 152.156 88.6537 152.476C89.0057 152.796 89.4377 152.956 89.9497 152.956C90.6857 152.956 91.2057 152.648 91.5097 152.032H92.9857C92.7857 152.64 92.4217 153.14 91.8937 153.532C91.3737 153.916 90.7257 154.108 89.9497 154.108C89.3177 154.108 88.7497 153.968 88.2457 153.688C87.7497 153.4 87.3577 153 87.0697 152.488C86.7897 151.968 86.6497 151.368 86.6497 150.688C86.6497 150.008 86.7857 149.412 87.0577 148.9C87.3377 148.38 87.7257 147.98 88.2217 147.7C88.7257 147.42 89.3017 147.28 89.9497 147.28C90.5737 147.28 91.1297 147.416 91.6177 147.688C92.1057 147.96 92.4857 148.344 92.7577 148.84C93.0297 149.328 93.1658 149.892 93.1658 150.532ZM91.7377 150.1C91.7297 149.596 91.5497 149.192 91.1977 148.888C90.8457 148.584 90.4097 148.432 89.8897 148.432C89.4177 148.432 89.0137 148.584 88.6777 148.888C88.3417 149.184 88.1417 149.588 88.0777 150.1H91.7377ZM95.472 148.348C95.672 148.012 95.936 147.752 96.264 147.568C96.6 147.376 96.996 147.28 97.452 147.28V148.696H97.104C96.568 148.696 96.16 148.832 95.88 149.104C95.608 149.376 95.472 149.848 95.472 150.52V154H94.104V147.388H95.472V148.348ZM98.9975 146.512C98.7495 146.512 98.5415 146.428 98.3735 146.26C98.2055 146.092 98.1215 145.884 98.1215 145.636C98.1215 145.388 98.2055 145.18 98.3735 145.012C98.5415 144.844 98.7495 144.76 98.9975 144.76C99.2375 144.76 99.4415 144.844 99.6095 145.012C99.7775 145.18 99.8615 145.388 99.8615 145.636C99.8615 145.884 99.7775 146.092 99.6095 146.26C99.4415 146.428 99.2375 146.512 98.9975 146.512ZM99.6695 147.388V154H98.3015V147.388H99.6695ZM103.83 148.504H102.606V154H101.226V148.504H100.446V147.388H101.226V146.92C101.226 146.16 101.426 145.608 101.826 145.264C102.234 144.912 102.87 144.736 103.734 144.736V145.876C103.318 145.876 103.026 145.956 102.858 146.116C102.69 146.268 102.606 146.536 102.606 146.92V147.388H103.83V148.504ZM110.586 147.388L106.53 157.108H105.114L106.458 153.892L103.854 147.388H105.378L107.238 152.428L109.17 147.388H110.586Z" fill="black"/>
<path d="M96.5 63.5833L81.875 69.9167V79.4167C81.875 88.2042 88.115 96.4217 96.5 98.4167C104.885 96.4217 111.125 88.2042 111.125 79.4167V69.9167L96.5 63.5833ZM93.25 88.9167L86.75 82.5833L89.0412 80.3508L93.25 84.4358L103.959 74.0017L106.25 76.25L93.25 88.9167Z" fill="#4CAF50"/>
</svg>
