<svg width="28" height="29" viewBox="0 0 28 29" fill="none" xmlns="http://www.w3.org/2000/svg">
<path d="M19.4688 3.17847C17.2714 3.17847 15.3212 4.04581 14 5.53659C12.6788 4.04581 10.7286 3.17847 8.53125 3.17847C6.61743 3.18078 4.78266 3.94207 3.42938 5.29535C2.0761 6.64862 1.31482 8.4834 1.3125 10.3972C1.3125 18.3094 12.8855 24.6313 13.3777 24.8971C13.5689 25.0001 13.7828 25.054 14 25.054C14.2172 25.054 14.4311 25.0001 14.6223 24.8971C15.1145 24.6313 26.6875 18.3094 26.6875 10.3972C26.6852 8.4834 25.9239 6.64862 24.5706 5.29535C23.2173 3.94207 21.3826 3.18078 19.4688 3.17847ZM18.8683 18.7491C17.345 20.0417 15.7166 21.2051 14 22.2272C12.2834 21.2051 10.655 20.0417 9.13172 18.7491C6.76156 16.7158 3.9375 13.615 3.9375 10.3972C3.9375 9.17888 4.42148 8.01044 5.28298 7.14894C6.14447 6.28745 7.31291 5.80347 8.53125 5.80347C10.4781 5.80347 12.1078 6.83159 12.7848 8.48753C12.8834 8.72893 13.0516 8.93551 13.268 9.08092C13.4844 9.22633 13.7393 9.30399 14 9.30399C14.2607 9.30399 14.5156 9.22633 14.732 9.08092C14.9484 8.93551 15.1166 8.72893 15.2152 8.48753C15.8922 6.83159 17.5219 5.80347 19.4688 5.80347C20.6871 5.80347 21.8555 6.28745 22.717 7.14894C23.5785 8.01044 24.0625 9.17888 24.0625 10.3972C24.0625 13.615 21.2384 16.7158 18.8683 18.7491Z" fill="#1D1F22"/>
</svg>
