<svg width="24" height="25" viewBox="0 0 24 25" fill="none" xmlns="http://www.w3.org/2000/svg">
<path d="M12 8.11597V12.116L14.5 14.616" stroke="#303030" stroke-width="1.5" stroke-linecap="round" stroke-linejoin="round"/>
<path d="M4.3381 6.98698L3.5881 6.98998C3.58889 7.18768 3.66771 7.37707 3.80741 7.51696C3.94711 7.65685 4.1364 7.73592 4.3341 7.73698L4.3381 6.98698ZM6.8801 7.74898C6.97859 7.74944 7.07621 7.73049 7.16738 7.69323C7.25855 7.65596 7.34149 7.6011 7.41145 7.53178C7.48142 7.46246 7.53705 7.38004 7.57517 7.28922C7.61329 7.19841 7.63314 7.10097 7.6336 7.00248C7.63406 6.90399 7.61511 6.80637 7.57785 6.7152C7.54058 6.62403 7.48572 6.54109 7.4164 6.47112C7.34709 6.40115 7.26466 6.34552 7.17385 6.30741C7.08303 6.26929 6.98559 6.24944 6.8871 6.24898L6.8801 7.74898ZM5.0751 4.43698C5.07457 4.33849 5.05465 4.24106 5.01648 4.15027C4.9783 4.05948 4.92262 3.97709 4.8526 3.90782C4.78259 3.83855 4.69961 3.78374 4.60842 3.74654C4.51722 3.70933 4.41959 3.69045 4.3211 3.69098C4.22261 3.6915 4.12518 3.71142 4.03439 3.7496C3.9436 3.78778 3.86121 3.84346 3.79194 3.91348C3.72267 3.98349 3.66786 4.06647 3.63066 4.15766C3.59345 4.24886 3.57457 4.34649 3.5751 4.44498L5.0751 4.43698ZM3.8271 10.901C3.84147 10.803 3.83628 10.7031 3.81182 10.6071C3.78737 10.5111 3.74414 10.4208 3.68463 10.3416C3.62512 10.2624 3.5505 10.1958 3.4651 10.1456C3.37969 10.0954 3.28518 10.0626 3.18704 10.0492C3.08889 10.0357 2.98904 10.0418 2.89327 10.0671C2.79749 10.0924 2.70769 10.1365 2.62903 10.1967C2.55038 10.257 2.48444 10.3322 2.43502 10.418C2.3856 10.5039 2.35368 10.5987 2.3411 10.697L3.8271 10.901ZM18.8621 5.25398C15.0421 1.43398 8.8691 1.39398 5.0741 5.18998L6.1341 6.24998C9.3341 3.05098 14.5571 3.06998 17.8021 6.31398L18.8621 5.25398ZM5.1381 18.978C8.9581 22.798 15.1311 22.838 18.9261 19.042L17.8661 17.982C14.6661 21.181 9.4431 21.162 6.1981 17.918L5.1381 18.978ZM18.9261 19.042C22.7211 15.247 22.6821 9.07398 18.8621 5.25398L17.8021 6.31398C21.0461 9.55898 21.0651 14.782 17.8661 17.982L18.9261 19.042ZM5.0741 5.18998L3.8071 6.45598L4.8681 7.51598L6.1341 6.24998L5.0741 5.18998ZM4.3341 7.73698L6.8801 7.74898L6.8871 6.24898L4.3421 6.23698L4.3341 7.73698ZM5.0881 6.98298L5.0751 4.43698L3.5751 4.44498L3.5881 6.98998L5.0881 6.98298ZM2.3401 10.696C2.13477 12.1986 2.28056 13.7284 2.76604 15.1653C3.25151 16.6021 4.06345 17.9078 5.1381 18.978L6.1981 17.918C5.28732 17.0113 4.5992 15.9047 4.18781 14.6872C3.77641 13.4696 3.65294 12.1743 3.8271 10.901L2.3401 10.696Z" fill="#303030"/>
</svg>
