<svg width="31" height="35" viewBox="0 0 31 35" fill="none" xmlns="http://www.w3.org/2000/svg">
<g filter="url(#filter0_d_200_1137)">
<g clip-path="url(#clip0_200_1137)">
<mask id="path-1-inside-1_200_1137" fill="white">
<path d="M26.7866 18.5623L20.5312 25.6462L17.5103 22.2185L18.521 21.0759L20.5312 23.3357L25.7759 17.4197L26.7866 18.5623ZM15.5 8.24097H11.1875V6.61597H15.5V8.24097ZM15.5 11.491H11.1875V9.86597H15.5V11.491ZM11.1875 13.116H15.5V14.741H11.1875V13.116ZM9.75 8.24097H8.3125V6.61597H9.75V8.24097ZM9.75 11.491H8.3125V9.86597H9.75V11.491ZM8.3125 13.116H9.75V14.741H8.3125V13.116ZM16.9375 8.24097V1.74097H6.875V24.491H16.9375V26.116H5.4375V0.115967H17.9595L24.125 7.08569V16.366L22.6875 17.991V8.24097H16.9375ZM18.375 6.61597H21.6655L18.375 2.89624V6.61597Z"/>
</mask>
<path d="M26.7866 18.5623L20.5312 25.6462L17.5103 22.2185L18.521 21.0759L20.5312 23.3357L25.7759 17.4197L26.7866 18.5623ZM15.5 8.24097H11.1875V6.61597H15.5V8.24097ZM15.5 11.491H11.1875V9.86597H15.5V11.491ZM11.1875 13.116H15.5V14.741H11.1875V13.116ZM9.75 8.24097H8.3125V6.61597H9.75V8.24097ZM9.75 11.491H8.3125V9.86597H9.75V11.491ZM8.3125 13.116H9.75V14.741H8.3125V13.116ZM16.9375 8.24097V1.74097H6.875V24.491H16.9375V26.116H5.4375V0.115967H17.9595L24.125 7.08569V16.366L22.6875 17.991V8.24097H16.9375ZM18.375 6.61597H21.6655L18.375 2.89624V6.61597Z" fill="#C4A484"/>
<path d="M26.7866 18.5623L28.2858 19.8861L29.4558 18.5611L28.2846 17.2371L26.7866 18.5623ZM20.5312 25.6462L19.0308 26.9686L20.5298 28.6694L22.0304 26.9701L20.5312 25.6462ZM17.5103 22.2185L16.0123 20.8934L14.8422 22.216L16.0098 23.5409L17.5103 22.2185ZM18.521 21.0759L20.0153 19.7466L18.5168 18.0621L17.023 19.7508L18.521 21.0759ZM20.5312 23.3357L19.0369 24.665L20.5338 26.3477L22.0278 24.6624L20.5312 23.3357ZM25.7759 17.4197L27.2739 16.0945L25.7775 14.403L24.2793 16.0929L25.7759 17.4197ZM15.5 8.24097V10.241H17.5V8.24097H15.5ZM11.1875 8.24097H9.1875V10.241H11.1875V8.24097ZM11.1875 6.61597V4.61597H9.1875V6.61597H11.1875ZM15.5 6.61597H17.5V4.61597H15.5V6.61597ZM15.5 11.491V13.491H17.5V11.491H15.5ZM11.1875 11.491H9.1875V13.491H11.1875V11.491ZM11.1875 9.86597V7.86597H9.1875V9.86597H11.1875ZM15.5 9.86597H17.5V7.86597H15.5V9.86597ZM11.1875 13.116V11.116H9.1875V13.116H11.1875ZM15.5 13.116H17.5V11.116H15.5V13.116ZM15.5 14.741V16.741H17.5V14.741H15.5ZM11.1875 14.741H9.1875V16.741H11.1875V14.741ZM9.75 8.24097V10.241H11.75V8.24097H9.75ZM8.3125 8.24097H6.3125V10.241H8.3125V8.24097ZM8.3125 6.61597V4.61597H6.3125V6.61597H8.3125ZM9.75 6.61597H11.75V4.61597H9.75V6.61597ZM9.75 11.491V13.491H11.75V11.491H9.75ZM8.3125 11.491H6.3125V13.491H8.3125V11.491ZM8.3125 9.86597V7.86597H6.3125V9.86597H8.3125ZM9.75 9.86597H11.75V7.86597H9.75V9.86597ZM8.3125 13.116V11.116H6.3125V13.116H8.3125ZM9.75 13.116H11.75V11.116H9.75V13.116ZM9.75 14.741V16.741H11.75V14.741H9.75ZM8.3125 14.741H6.3125V16.741H8.3125V14.741ZM16.9375 8.24097H14.9375V10.241H16.9375V8.24097ZM16.9375 1.74097H18.9375V-0.259033H16.9375V1.74097ZM6.875 1.74097V-0.259033H4.875V1.74097H6.875ZM6.875 24.491H4.875V26.491H6.875V24.491ZM16.9375 24.491H18.9375V22.491H16.9375V24.491ZM16.9375 26.116V28.116H18.9375V26.116H16.9375ZM5.4375 26.116H3.4375V28.116H5.4375V26.116ZM5.4375 0.115967V-1.88403H3.4375V0.115967H5.4375ZM17.9595 0.115967L19.4575 -1.20918L18.8605 -1.88403H17.9595V0.115967ZM24.125 7.08569H26.125V6.32803L25.623 5.76055L24.125 7.08569ZM24.125 16.366L25.623 17.6911L26.125 17.1236V16.366H24.125ZM22.6875 17.991H20.6875V23.2704L24.1855 19.3161L22.6875 17.991ZM22.6875 8.24097H24.6875V6.24097H22.6875V8.24097ZM18.375 6.61597H16.375V8.61597H18.375V6.61597ZM21.6655 6.61597V8.61597H26.105L23.1635 5.29082L21.6655 6.61597ZM18.375 2.89624L19.873 1.57109L16.375 -2.38316V2.89624H18.375ZM25.2874 17.2384L19.0321 24.3224L22.0304 26.9701L28.2858 19.8861L25.2874 17.2384ZM22.0317 24.3239L19.0107 20.8961L16.0098 23.5409L19.0308 26.9686L22.0317 24.3239ZM19.0082 23.5437L20.019 22.4011L17.023 19.7508L16.0123 20.8934L19.0082 23.5437ZM17.0267 22.4052L19.0369 24.665L22.0256 22.0064L20.0153 19.7466L17.0267 22.4052ZM22.0278 24.6624L27.2725 18.7464L24.2793 16.0929L19.0347 22.009L22.0278 24.6624ZM24.2779 18.7448L25.2886 19.8874L28.2846 17.2371L27.2739 16.0945L24.2779 18.7448ZM15.5 6.24097H11.1875V10.241H15.5V6.24097ZM13.1875 8.24097V6.61597H9.1875V8.24097H13.1875ZM11.1875 8.61597H15.5V4.61597H11.1875V8.61597ZM13.5 6.61597V8.24097H17.5V6.61597H13.5ZM15.5 9.49097H11.1875V13.491H15.5V9.49097ZM13.1875 11.491V9.86597H9.1875V11.491H13.1875ZM11.1875 11.866H15.5V7.86597H11.1875V11.866ZM13.5 9.86597V11.491H17.5V9.86597H13.5ZM11.1875 15.116H15.5V11.116H11.1875V15.116ZM13.5 13.116V14.741H17.5V13.116H13.5ZM15.5 12.741H11.1875V16.741H15.5V12.741ZM13.1875 14.741V13.116H9.1875V14.741H13.1875ZM9.75 6.24097H8.3125V10.241H9.75V6.24097ZM10.3125 8.24097V6.61597H6.3125V8.24097H10.3125ZM8.3125 8.61597H9.75V4.61597H8.3125V8.61597ZM7.75 6.61597V8.24097H11.75V6.61597H7.75ZM9.75 9.49097H8.3125V13.491H9.75V9.49097ZM10.3125 11.491V9.86597H6.3125V11.491H10.3125ZM8.3125 11.866H9.75V7.86597H8.3125V11.866ZM7.75 9.86597V11.491H11.75V9.86597H7.75ZM8.3125 15.116H9.75V11.116H8.3125V15.116ZM7.75 13.116V14.741H11.75V13.116H7.75ZM9.75 12.741H8.3125V16.741H9.75V12.741ZM10.3125 14.741V13.116H6.3125V14.741H10.3125ZM18.9375 8.24097V1.74097H14.9375V8.24097H18.9375ZM16.9375 -0.259033H6.875V3.74097H16.9375V-0.259033ZM4.875 1.74097V24.491H8.875V1.74097H4.875ZM6.875 26.491H16.9375V22.491H6.875V26.491ZM14.9375 24.491V26.116H18.9375V24.491H14.9375ZM16.9375 24.116H5.4375V28.116H16.9375V24.116ZM7.4375 26.116V0.115967H3.4375V26.116H7.4375ZM5.4375 2.11597H17.9595V-1.88403H5.4375V2.11597ZM16.4615 1.44111L22.627 8.41084L25.623 5.76055L19.4575 -1.20918L16.4615 1.44111ZM22.125 7.08569V16.366H26.125V7.08569H22.125ZM22.627 15.0408L21.1895 16.6658L24.1855 19.3161L25.623 17.6911L22.627 15.0408ZM24.6875 17.991V8.24097H20.6875V17.991H24.6875ZM22.6875 6.24097H16.9375V10.241H22.6875V6.24097ZM18.375 8.61597H21.6655V4.61597H18.375V8.61597ZM23.1635 5.29082L19.873 1.57109L16.877 4.22139L20.1675 7.94111L23.1635 5.29082ZM16.375 2.89624V6.61597H20.375V2.89624H16.375Z" fill="#C4A484" mask="url(#path-1-inside-1_200_1137)"/>
</g>
</g>
<defs>
<filter id="filter0_d_200_1137" x="0" y="0.115967" width="31" height="34" filterUnits="userSpaceOnUse" color-interpolation-filters="sRGB">
<feFlood flood-opacity="0" result="BackgroundImageFix"/>
<feColorMatrix in="SourceAlpha" type="matrix" values="0 0 0 0 0 0 0 0 0 0 0 0 0 0 0 0 0 0 127 0" result="hardAlpha"/>
<feOffset dy="4"/>
<feGaussianBlur stdDeviation="2"/>
<feComposite in2="hardAlpha" operator="out"/>
<feColorMatrix type="matrix" values="0 0 0 0 0 0 0 0 0 0 0 0 0 0 0 0 0 0 0.25 0"/>
<feBlend mode="normal" in2="BackgroundImageFix" result="effect1_dropShadow_200_1137"/>
<feBlend mode="normal" in="SourceGraphic" in2="effect1_dropShadow_200_1137" result="shape"/>
</filter>
<clipPath id="clip0_200_1137">
<rect width="23" height="26" fill="white" transform="translate(4 0.115967)"/>
</clipPath>
</defs>
</svg>
