<svg width="30" height="26" viewBox="0 0 30 26" fill="none" xmlns="http://www.w3.org/2000/svg">
<path d="M19.2273 2.59212C19.0445 3.44742 19.0445 4.32893 19.2273 5.18423H3.42409L13.7195 13.8186L20.6045 7.96039C21.1855 8.64341 21.9109 9.21238 22.7359 9.62582L13.7345 17.2868L2.72727 8.0563V23.3291H24.5455V10.2389C25.4454 10.4126 26.3728 10.4126 27.2727 10.2389V24.6251C27.2727 24.9688 27.1291 25.2985 26.8733 25.5416C26.6176 25.7846 26.2708 25.9212 25.9091 25.9212H1.36364C1.00198 25.9212 0.655131 25.7846 0.3994 25.5416C0.143668 25.2985 0 24.9688 0 24.6251V3.88818C0 3.54444 0.143668 3.21478 0.3994 2.97172C0.655131 2.72867 1.00198 2.59212 1.36364 2.59212H19.2273ZM25.9091 7.77635C25.3719 7.77635 24.8399 7.67578 24.3436 7.48038C23.8472 7.28498 23.3963 6.99858 23.0164 6.63753C22.6365 6.27648 22.3352 5.84785 22.1296 5.37611C21.924 4.90438 21.8182 4.39878 21.8182 3.88818C21.8182 3.37757 21.924 2.87197 22.1296 2.40023C22.3352 1.9285 22.6365 1.49987 23.0164 1.13882C23.3963 0.77777 23.8472 0.491369 24.3436 0.29597C24.8399 0.100571 25.3719 -7.60857e-09 25.9091 0C26.9941 1.53662e-08 28.0346 0.409646 28.8018 1.13882C29.569 1.86799 30 2.85697 30 3.88818C30 4.91938 29.569 5.90836 28.8018 6.63753C28.0346 7.3667 26.9941 7.77635 25.9091 7.77635Z" fill="#AA001F"/>
</svg>
