<svg width="28" height="26" viewBox="0 0 28 26" fill="none" xmlns="http://www.w3.org/2000/svg">
<g clip-path="url(#clip0_28_157)">
<path d="M25.5498 20.3161L25.2854 20.0994C24.5352 19.4788 23.8785 18.767 23.3332 17.9833C22.7376 16.9018 22.3806 15.7208 22.2832 14.5094V10.9417C22.2883 9.03905 21.5451 7.20018 20.1931 5.77054C18.8411 4.3409 16.9734 3.4189 14.941 3.17778V2.24611C14.941 1.9904 14.8316 1.74516 14.6368 1.56434C14.4421 1.38353 14.178 1.28194 13.9026 1.28194C13.6272 1.28194 13.3631 1.38353 13.1684 1.56434C12.9737 1.74516 12.8643 1.9904 12.8643 2.24611V3.19222C10.85 3.45073 9.00494 4.3783 7.6707 5.80313C6.33647 7.22797 5.60353 9.05352 5.60763 10.9417V14.5094C5.51021 15.7208 5.15323 16.9018 4.55763 17.9833C4.02165 18.765 3.37556 19.4767 2.63651 20.0994L2.37207 20.3161V22.3528H25.5498V20.3161Z" fill="#C4A484"/>
<path d="M11.9155 23.1111C11.9837 23.5689 12.228 23.9883 12.6033 24.2919C12.9786 24.5955 13.4595 24.7627 13.9572 24.7627C14.4549 24.7627 14.9358 24.5955 15.3111 24.2919C15.6864 23.9883 15.9307 23.5689 15.9989 23.1111H11.9155Z" fill="#C4A484"/>
</g>
<defs>
<clipPath id="clip0_28_157">
<rect width="28" height="26" fill="white"/>
</clipPath>
</defs>
</svg>
