<svg width="17" height="22" viewBox="0 0 17 22" fill="none" xmlns="http://www.w3.org/2000/svg">
<path d="M16.91 7.72C16.91 8.94 16.63 10.06 16.07 11.08C15.51 12.08 14.65 12.89 13.49 13.51C12.33 14.13 10.89 14.44 9.17 14.44H5.99V22H0.86V0.939999H9.17C10.85 0.939999 12.27 1.23 13.43 1.81C14.59 2.39 15.46 3.19 16.04 4.21C16.62 5.23 16.91 6.4 16.91 7.72ZM8.78 10.36C9.76 10.36 10.49 10.13 10.97 9.67C11.45 9.21 11.69 8.56 11.69 7.72C11.69 6.88 11.45 6.23 10.97 5.77C10.49 5.31 9.76 5.08 8.78 5.08H5.99V10.36H8.78Z" fill="#AA001F"/>
</svg>
