<svg width="24" height="25" viewBox="0 0 24 25" fill="none" xmlns="http://www.w3.org/2000/svg">
<path d="M2.75006 18.116H15.2501C15.4401 18.1161 15.623 18.1883 15.7619 18.318C15.9007 18.4477 15.9851 18.6253 15.9981 18.8149C16.011 19.0045 15.9515 19.1919 15.8316 19.3393C15.7117 19.4867 15.5403 19.5831 15.3521 19.609L15.2501 19.616H2.75006C2.55868 19.618 2.3738 19.5467 2.23328 19.4167C2.09275 19.2868 2.00721 19.1081 1.99417 18.9171C1.98114 18.7262 2.04159 18.5375 2.16316 18.3897C2.28472 18.2419 2.45819 18.1461 2.64806 18.122L2.75006 18.116H15.2501H2.75006ZM2.75006 11.616H21.2501C21.4401 11.6161 21.623 11.6883 21.7619 11.818C21.9007 11.9477 21.9851 12.1253 21.9981 12.3149C22.011 12.5045 21.9515 12.6919 21.8316 12.8393C21.7117 12.9867 21.5403 13.0831 21.3521 13.109L21.2501 13.116H2.75006C2.56004 13.116 2.37712 13.0438 2.23827 12.914C2.09942 12.7843 2.01499 12.6067 2.00203 12.4171C1.98908 12.2276 2.04857 12.0401 2.16849 11.8927C2.28841 11.7453 2.45981 11.6489 2.64806 11.623L2.75006 11.616H21.2501H2.75006ZM2.75006 5.11902H18.2501C18.4401 5.11908 18.623 5.19126 18.7619 5.32099C18.9007 5.45072 18.9851 5.62832 18.9981 5.8179C19.011 6.00748 18.9515 6.19491 18.8316 6.34232C18.7117 6.48972 18.5403 6.58612 18.3521 6.61202L18.2501 6.61902H2.75006C2.56004 6.61896 2.37712 6.54677 2.23827 6.41705C2.09942 6.28732 2.01499 6.10972 2.00203 5.92014C1.98908 5.73056 2.04857 5.54313 2.16849 5.39572C2.28841 5.24831 2.45981 5.15192 2.64806 5.12602L2.75006 5.11902H18.2501H2.75006Z" fill="black"/>
</svg>
