<svg width="24" height="25" viewBox="0 0 24 25" fill="none" xmlns="http://www.w3.org/2000/svg">
<path d="M20 12.116H4M16 4.11597H18C18.5304 4.11597 19.0391 4.32668 19.4142 4.70175C19.7893 5.07683 20 5.58553 20 6.11597V8.11597M8 20.116H6C5.46957 20.116 4.96086 19.9053 4.58579 19.5302C4.21071 19.1551 4 18.6464 4 18.116V16.116M20 16.116V18.116C20 18.6464 19.7893 19.1551 19.4142 19.5302C19.0391 19.9053 18.5304 20.116 18 20.116H16M4 8.11597V6.11597C4 5.58553 4.21071 5.07683 4.58579 4.70175C4.96086 4.32668 5.46957 4.11597 6 4.11597H8" stroke="black" stroke-linecap="round" stroke-linejoin="round"/>
</svg>
