<svg width="31" height="30" viewBox="0 0 31 30" fill="none" xmlns="http://www.w3.org/2000/svg">
<path d="M15.3668 1.84009C14.7916 1.90806 14.2709 2.53677 14.2709 3.35806C14.2709 3.81118 14.4344 4.20767 14.6766 4.48521L14.9732 4.81372L14.5191 4.89302C14.2043 4.94966 13.9742 5.10825 13.7744 5.36313C13.5686 5.62368 13.4172 5.97259 13.3143 6.38606C13.1205 7.12806 13.0781 8.03431 13.0721 8.8386H14.1316L14.2285 10.079C14.6402 10.062 15.0641 10.0507 15.4939 10.0507C15.948 10.0507 16.39 10.062 16.8199 10.0847L16.9107 8.8386H17.9158C17.9158 8.02864 17.9037 7.1054 17.7281 6.35208C17.6312 5.94427 17.4859 5.5897 17.2861 5.33481C17.0863 5.07993 16.8381 4.927 16.4809 4.87603L16.0207 4.80806L16.3113 4.46821C16.5475 4.19634 16.7049 3.79985 16.7049 3.35806C16.7049 2.48579 16.1236 1.84009 15.4879 1.84009H15.3668ZM3.74785 9.99407C3.17266 10.062 2.65195 10.6908 2.65195 11.512C2.65195 11.9652 2.81543 12.3617 3.05762 12.6392L3.3543 12.9677L2.9002 13.047C2.58535 13.1036 2.35527 13.2622 2.15547 13.5171C1.94961 13.7777 1.79824 14.1288 1.69531 14.5423C1.50156 15.2843 1.45918 16.1906 1.45312 16.9949H2.5127L2.79727 20.6368C3.53594 20.7954 4.32305 20.7841 5.03387 20.6368L5.29422 16.9949H6.29688C6.29688 16.1849 6.28477 15.2617 6.10918 14.5083C6.01412 14.1005 5.86881 13.7437 5.669 13.4888C5.4698 13.2339 5.22156 13.081 4.86434 13.03L4.40176 12.962L4.69238 12.6222C4.93094 12.3503 5.08836 11.9538 5.08836 11.512C5.08836 10.6398 4.50469 9.99407 3.86895 9.99407H3.74785ZM26.9979 9.99407C26.4227 10.062 25.902 10.6908 25.902 11.512C25.902 11.9652 26.0654 12.3617 26.3076 12.6392L26.6043 12.9677L26.1502 13.047C25.8354 13.1036 25.6053 13.2622 25.4055 13.5171C25.1996 13.7777 25.0482 14.1288 24.9453 14.5423C24.7516 15.2843 24.7092 16.1906 24.7031 16.9949H25.7627L26.0473 20.6368C26.7859 20.7954 27.573 20.7841 28.2814 20.6368L28.5418 16.9949H29.5469C29.5469 16.1849 29.5348 15.2617 29.3592 14.5083C29.2623 14.1005 29.117 13.7437 28.9172 13.4888C28.7174 13.2339 28.4691 13.081 28.1119 13.03L27.6518 12.962L27.9424 12.6222C28.1785 12.3503 28.3359 11.9538 28.3359 11.512C28.3359 10.6398 27.7547 9.99407 27.1189 9.99407H26.9979ZM15.4939 11.0702C13.2719 11.0702 11.2617 11.3704 9.85098 11.8349C9.14863 12.0671 8.59766 12.3447 8.25859 12.6109C7.91348 12.8771 7.80449 13.098 7.80449 13.2792C7.80449 13.4605 7.91348 13.6814 8.25859 13.9476C8.59766 14.2138 9.14863 14.4857 9.85098 14.7236C11.2617 15.188 13.2719 15.4882 15.4939 15.4882C17.716 15.4882 19.7262 15.188 21.1369 14.7236C21.8393 14.4857 22.3902 14.2138 22.7293 13.9476C23.0744 13.6814 23.1834 13.4605 23.1834 13.2792C23.1834 13.098 23.0744 12.8771 22.7293 12.6109C22.3902 12.3447 21.8393 12.0671 21.1369 11.8349C19.7262 11.3704 17.716 11.0702 15.4939 11.0702ZM9.13652 15.5562V18.1503H10.2264V15.896C9.97207 15.8281 9.72383 15.7601 9.48769 15.6808C9.3666 15.6411 9.25156 15.6015 9.13652 15.5562ZM21.8514 15.5562C21.7363 15.6015 21.6213 15.6411 21.5002 15.6808C21.2641 15.7601 21.0158 15.8281 20.7615 15.896V18.1503H21.8514V15.5562ZM15.3668 16.6324C14.7916 16.7003 14.2709 17.329 14.2709 18.1503C14.2709 18.6034 14.4344 18.9999 14.6766 19.2775L14.9732 19.606L14.5191 19.6853C14.2043 19.7419 13.9742 19.9005 13.7744 20.1554C13.5686 20.4159 13.4172 20.7671 13.3143 21.1806C13.1205 21.9226 13.0781 22.8288 13.0721 23.6331H14.1316L14.4162 27.2751C15.1549 27.4337 15.942 27.4224 16.6504 27.2751L16.9107 23.6331H17.9158C17.9158 22.8232 17.9037 21.8999 17.7281 21.1466C17.6312 20.7388 17.4859 20.382 17.2861 20.1271C17.0863 19.8722 16.8381 19.7193 16.4809 19.6683L16.0207 19.6003L16.3113 19.2605C16.5475 18.9886 16.7049 18.5921 16.7049 18.1503C16.7049 17.2781 16.1236 16.6324 15.4879 16.6324H15.3668Z" fill="#C4A484"/>
</svg>
