<svg width="98" height="102" viewBox="0 0 98 102" fill="none" xmlns="http://www.w3.org/2000/svg">
<rect x="0.37793" y="30.0054" width="97.6221" height="39.5903" rx="7" fill="#D9D9D9"/>
<rect x="8.42871" y="6.61108" width="30.1924" height="17.9956" rx="3" fill="#D9D9D9"/>
<rect x="8.42871" y="0.312622" width="30.1924" height="3.59912" rx="1.79956" fill="#D9D9D9"/>
<rect x="56.7363" y="6.61108" width="30.1924" height="17.9956" rx="3" fill="#D9D9D9"/>
<rect x="56.7363" y="0.312622" width="30.1924" height="3.59912" rx="1.79956" fill="#D9D9D9"/>
<rect width="30.1924" height="17.9956" rx="3" transform="matrix(-1 -0.000312081 0.000390434 -1 86.9282 95.7015)" fill="#D9D9D9"/>
<rect width="30.1924" height="3.59912" rx="1.79956" transform="matrix(-1 -0.000312081 0.000390434 -1 86.9258 102)" fill="#D9D9D9"/>
<rect width="30.1924" height="17.9956" rx="3" transform="matrix(-1 -0.000312081 0.000390434 -1 38.6206 95.6865)" fill="#D9D9D9"/>
<rect width="30.1924" height="3.59912" rx="1.79956" transform="matrix(-1 -0.000312081 0.000390434 -1 38.6182 101.985)" fill="#D9D9D9"/>
</svg>
