<svg width="24" height="25" viewBox="0 0 24 25" fill="none" xmlns="http://www.w3.org/2000/svg">
<path d="M12 12.116C14.7614 12.116 17 9.87739 17 7.11597C17 4.35454 14.7614 2.11597 12 2.11597C9.23858 2.11597 7 4.35454 7 7.11597C7 9.87739 9.23858 12.116 12 12.116Z" stroke="black" stroke-width="1.2"/>
<path d="M17.0001 14.116H17.3521C18.0831 14.1162 18.789 14.3833 19.337 14.8672C19.885 15.3512 20.2374 16.0185 20.3281 16.744L20.7191 19.868C20.7542 20.1494 20.7291 20.4351 20.6455 20.7061C20.5618 20.9771 20.4214 21.2272 20.2337 21.4398C20.046 21.6524 19.8152 21.8226 19.5566 21.9392C19.2981 22.0558 19.0177 22.116 18.7341 22.116H5.26606C4.98244 22.116 4.70206 22.0558 4.44351 21.9392C4.18496 21.8226 3.95416 21.6524 3.76644 21.4398C3.57871 21.2272 3.43835 20.9771 3.35467 20.7061C3.27098 20.4351 3.24589 20.1494 3.28106 19.868L3.67106 16.744C3.76176 16.0182 4.11448 15.3505 4.66289 14.8666C5.21131 14.3826 5.91764 14.1157 6.64906 14.116H7.00006" stroke="black" stroke-width="1.2" stroke-linecap="round" stroke-linejoin="round"/>
</svg>
